<svg xmlns="http://www.w3.org/2000/svg" version="1.1" xmlns:xlink="http://www.w3.org/1999/xlink" width="255" height="255"><svg width="255" height="255" viewBox="0 0 255 255" fill="none" xmlns="http://www.w3.org/2000/svg">
<path d="M61.7437 123.619C83.8973 124.827 109.263 128.218 129.869 153.206C146.301 173.123 162.021 174.214 163.754 174.278H163.84C178.109 174.267 191.926 167.7 201.753 156.265C210.868 145.644 215.57 132.016 214.993 117.874C213.599 83.8592 196.022 64.5104 162.791 60.392C162.724 60.3813 155.061 59.4721 143.032 59.4721C122.205 59.4721 82.6093 62.3388 51.3604 81.4962C44.9373 85.4325 40.9566 92.9735 40.9566 101.156C40.9566 113.318 49.8892 122.977 61.7448 123.629L61.7437 123.619ZM54.0994 87.0049C84.2333 68.5214 122.754 65.7618 143.041 65.7618C154.56 65.7618 162.06 66.6282 162.137 66.6389C192.214 70.372 208.099 87.7109 209.349 118.152C209.859 130.559 205.714 142.539 197.676 151.898C188.926 162.092 176.619 167.943 163.907 167.964C162.897 167.922 148.936 166.97 134.061 148.935C112.003 122.194 85.3203 118.59 62.0319 117.316C53.2532 116.835 46.6283 109.883 46.6283 101.144C46.6283 95.2499 49.4937 89.8374 54.109 87.0028L54.0994 87.0049ZM69.3685 108.954C68.2627 107.724 68.2627 105.724 69.3685 104.494L90.6566 80.8117C91.7624 79.5816 93.5605 79.5816 94.6662 80.8117C95.7719 82.0418 95.7719 84.0421 94.6662 85.2721L73.378 108.954C72.2723 110.184 70.4742 110.184 69.3685 108.954ZM91.8202 108.301L121.156 75.6665C122.262 74.4364 124.06 74.4364 125.166 75.6665C126.272 76.8966 126.272 78.8969 125.166 80.1269L95.8297 112.762C94.724 113.992 92.9259 113.992 91.8202 112.762C90.7144 111.532 90.7144 109.532 91.8202 108.301ZM111.051 115.682L147.722 74.8869C148.828 73.6568 150.626 73.6568 151.732 74.8869C152.838 76.117 152.838 78.1173 151.732 79.3473L115.06 120.142C113.955 121.372 112.156 121.372 111.051 120.142C109.945 118.912 109.945 116.912 111.051 115.682ZM127.176 126.539L170.752 78.0409C171.858 76.8108 173.656 76.8108 174.761 78.0409C175.867 79.271 175.867 81.2713 174.761 82.5013L131.185 130.999C130.079 132.229 128.291 132.229 127.176 130.999C126.07 129.769 126.07 127.769 127.176 126.539ZM140.599 140.391L187.559 88.1496C188.665 86.9195 190.463 86.9195 191.569 88.1496C192.675 89.3797 192.675 91.3799 191.569 92.61L144.608 144.851C143.502 146.081 141.704 146.081 140.599 144.851C139.493 143.621 139.493 141.621 140.599 140.391ZM155.675 152.424L196.28 107.253C197.386 106.023 199.184 106.023 200.29 107.253C201.396 108.483 201.396 110.484 200.29 111.714L159.685 156.885C158.579 158.115 156.781 158.115 155.675 156.885C154.57 155.654 154.57 153.654 155.675 152.424ZM227.943 117.651C227.943 77.8714 205.058 51.1292 164.126 46.0497C161.337 45.7181 95.1368 38.1878 45.1066 68.8758C34.7318 75.2402 27.9048 87.5518 28.001 101.522V123.46C28.001 143.441 42.2315 159.282 61.0961 160.32C86.7499 161.732 104.672 166.268 120.325 185.254C141.113 210.465 162.055 211 163.739 211H163.825C181.614 211 198.845 202.806 211.113 188.538C222.7 175.049 228.671 157.636 227.94 139.664C227.94 138.691 227.95 118.828 227.95 117.64L227.943 117.651ZM47.8487 74.3938C96.2814 44.6888 162.858 52.2306 163.51 52.3163C224.578 59.9 222.279 113.714 222.279 117.501C222.279 157.965 192.999 182.385 163.798 182.385C154.654 182.385 138.231 175.315 124.51 158.682C105.789 135.973 83.068 132.903 61.3944 131.716C45.7214 130.86 33.6728 117.821 33.6728 101.157C33.6728 90.0111 39.1054 79.7638 47.8457 74.3943L47.8487 74.3938ZM207.02 184.183C195.818 197.222 180.079 204.699 163.798 204.699C163.568 204.709 144.058 204.709 124.51 180.995C105.789 158.287 83.0582 155.217 61.3845 154.03C45.5865 153.163 33.6728 140.028 33.6728 123.459V121.598C39.4709 130.958 49.4612 137.365 61.1138 138.017C86.7578 139.418 104.66 143.954 120.335 162.951C135.018 180.75 153.374 188.932 163.835 188.686C163.893 188.686 163.941 188.676 163.999 188.676C181.248 188.633 198.642 180.76 211.142 166.213C215.651 160.972 219.295 155.121 222.036 148.885C220.767 161.945 215.584 174.235 207.036 184.195L207.02 184.183Z" fill="white"></path>
</svg><style>@media (prefers-color-scheme: light) { :root { filter: contrast(1) brightness(0.1); } }
@media (prefers-color-scheme: dark) { :root { filter: contrast(1) brightness(1); } }
</style></svg>