<svg width="121" height="101" viewBox="0 0 121 101" fill="none" xmlns="http://www.w3.org/2000/svg">
<path d="M20.4149 47.6736C33.8179 48.4066 49.1642 50.4627 61.6305 65.6151C71.5722 77.6924 81.0826 78.3541 82.131 78.3929H82.1834C90.8162 78.3864 99.1753 74.404 105.12 67.4701C110.635 61.0293 113.48 52.7658 113.131 44.1903C112.287 23.5639 101.653 11.8309 81.5488 9.33358C81.5081 9.32709 76.8718 8.77575 69.5944 8.77575C56.9943 8.77575 33.0386 10.5141 14.133 22.131C10.2471 24.5179 7.83873 29.0907 7.83873 34.0527C7.83873 41.4275 13.2429 47.2847 20.4156 47.6802L20.4149 47.6736ZM15.7902 25.4714C34.0211 14.2632 57.3259 12.5898 69.6 12.5898C76.5691 12.5898 81.1066 13.1152 81.153 13.1216C99.3497 15.3854 108.96 25.8995 109.716 44.3585C110.025 51.8824 107.517 59.147 102.654 64.8222C97.3603 71.0036 89.9142 74.5516 82.2235 74.5645C81.6127 74.5386 73.1661 73.9613 64.1667 63.0256C50.822 46.81 34.6788 44.6242 20.5893 43.8521C15.2782 43.5602 11.2701 39.3442 11.2701 34.045C11.2701 30.4711 13.0037 27.189 15.796 25.4701L15.7902 25.4714ZM25.0279 38.7811C24.3589 38.0352 24.3589 36.8223 25.0279 36.0764L37.9072 21.7159C38.5762 20.97 39.6641 20.97 40.333 21.7159C41.002 22.4618 41.002 23.6748 40.333 24.4207L27.4537 38.7811C26.7847 39.527 25.6969 39.527 25.0279 38.7811ZM38.6112 38.3855L56.3597 18.5959C57.0287 17.85 58.1165 17.85 58.7855 18.5959C59.4544 19.3418 59.4544 20.5548 58.7855 21.3007L41.037 41.0902C40.368 41.8361 39.2802 41.8361 38.6112 41.0902C37.9422 40.3443 37.9422 39.1313 38.6112 38.3855ZM50.2457 42.8609L72.432 18.1232C73.101 17.3773 74.1889 17.3773 74.8578 18.1232C75.5268 18.8691 75.5268 20.082 74.8578 20.8279L52.6715 45.5657C52.0025 46.3116 50.9147 46.3116 50.2457 45.5657C49.5767 44.8198 49.5767 43.6068 50.2457 42.8609ZM60.0013 49.4444L86.3648 20.0357C87.0338 19.2898 88.1217 19.2898 88.7906 20.0357C89.4596 20.7816 89.4596 21.9946 88.7906 22.7405L62.427 52.1491C61.758 52.8951 60.676 52.8951 60.0013 52.1491C59.3323 51.4032 59.3323 50.1903 60.0013 49.4444ZM68.1221 57.8441L96.5334 26.1655C97.2023 25.4196 98.2902 25.4196 98.9591 26.1655C99.6281 26.9114 99.6281 28.1244 98.9591 28.8703L70.5479 60.5488C69.8789 61.2947 68.791 61.2947 68.1221 60.5488C67.4531 59.8029 67.4531 58.59 68.1221 57.8441ZM77.2435 65.141L101.81 37.7498C102.479 37.0039 103.566 37.0039 104.235 37.7498C104.904 38.4957 104.904 39.7087 104.235 40.4546L79.6693 67.8458C79.0003 68.5917 77.9125 68.5917 77.2435 67.8458C76.5746 67.0999 76.5746 65.8869 77.2435 65.141ZM120.965 44.0547C120.965 19.9329 107.12 3.71672 82.356 0.636537C80.669 0.43547 40.6178 -4.13085 10.3495 14.4781C4.07272 18.3374 -0.0576205 25.803 0.000607794 34.2743V47.5775C0.000607794 59.6938 8.61006 69.2999 20.0231 69.9292C35.5437 70.7853 46.3867 73.5356 55.8566 85.0486C68.4335 100.337 81.1033 100.661 82.1219 100.661H82.1743C92.9362 100.661 103.361 95.6924 110.784 87.0399C117.793 78.8607 121.406 68.3014 120.964 57.4037C120.964 56.8135 120.97 44.7685 120.97 44.0485L120.965 44.0547ZM12.0084 17.8241C41.3103 -0.188718 81.5891 4.38456 81.9837 4.43653C118.93 9.03522 117.539 41.6677 117.539 43.9642C117.539 68.501 99.8245 83.3091 82.158 83.3091C76.6258 83.3091 66.6895 79.0218 58.3886 68.9357C47.0624 55.1654 33.3161 53.3038 20.2036 52.5839C10.7215 52.065 3.43206 44.1583 3.43206 34.0529C3.43206 27.2943 6.71876 21.0805 12.0067 17.8245L12.0084 17.8241ZM108.307 84.3992C101.53 92.3059 92.0076 96.8398 82.158 96.8398C82.0183 96.8463 70.2152 96.8463 58.3886 82.4664C47.0624 68.6961 33.3102 66.8345 20.1976 66.1146C10.6399 65.5892 3.43206 57.6241 3.43206 47.577V46.4484C6.9399 52.1239 12.984 56.0091 20.0338 56.4048C35.5485 57.2545 46.3795 60.0047 55.8629 71.5242C64.7457 82.3173 75.8511 87.2793 82.1803 87.1301C82.2152 87.1301 82.2443 87.1236 82.2792 87.1236C92.7153 87.0976 103.238 82.3238 110.801 73.5025C113.529 70.3242 115.734 66.7763 117.392 62.9949C116.624 70.9145 113.488 78.3672 108.317 84.4067L108.307 84.3992Z" fill="white"/>
</svg>
